<svg width="242" height="45" viewBox="0 0 242 45" fill="none" xmlns="http://www.w3.org/2000/svg">
<path d="M17.28 24.32H17.024H17.28L20.672 10.304L23.424 0H31.424L34.304 44.8H25.92L24.704 20.352H24.384L19.776 38.4H14.528L9.92 20.352H9.6L8.384 44.8H0L2.88 0H10.88L13.632 10.304L17.024 24.32H17.28Z" fill="#4F46E5"/>
<path d="M39.46 44.8V0H62.436V7.68H48.228V18.368H60.9V25.792H48.228V37.376H62.692V44.8H39.46Z" fill="#4F46E5"/>
<path d="M87.6155 44.8L75.6475 20.032L75.3275 20.16L75.7115 27.712V44.8H67.6475V0H74.1115L85.8875 25.728L86.2075 25.6L85.5035 17.728V0H93.5675V44.8H87.6155Z" fill="#4F46E5"/>
<path d="M110.782 37.376H116.158C117.097 36.352 117.758 35.328 118.142 34.304C118.569 33.2373 118.782 31.68 118.782 29.632V0H127.55V26.432C127.55 28.608 127.486 30.3147 127.358 31.552C127.273 32.7467 127.017 34.2187 126.59 35.968C125.865 39.0827 123.859 42.0267 120.574 44.8H106.366C103.081 42.112 101.075 39.168 100.35 35.968C99.71 33.3653 99.39 30.1867 99.39 26.432V0H108.158V29.632C108.158 31.68 108.35 33.2373 108.734 34.304C109.161 35.328 109.843 36.352 110.782 37.376Z" fill="#4F46E5"/>
<path d="M136.868 0H152.229V7.68H139.941L139.749 8.064L149.988 26.752C152.079 30.5067 153.124 33.3653 153.124 35.328C153.124 39.6373 151.695 42.7947 148.837 44.8H131.876V37.376H145.124L145.316 36.992L133.796 16.32C132.132 13.3333 131.301 10.9013 131.301 9.024C131.301 4.58667 133.156 1.57867 136.868 0Z" fill="#4F46E5"/>
<path d="M173.329 44.8H163.985V29.888L154.513 0H163.217L167.185 13.632L168.529 21.504H168.785L170.129 13.632L174.097 0H182.801L173.329 29.888V44.8Z" fill="#4F46E5"/>
<path d="M205.866 44.8L193.898 20.032L193.577 20.16L193.962 27.712V44.8H185.898V0H192.361L204.137 25.728L204.458 25.6L203.754 17.728V0H211.818V44.8H205.866Z" fill="#4F46E5"/>
<path d="M230.376 37.376H241.64V44.8H225.384C222.568 42.1547 220.435 38.8053 218.984 34.752C217.533 30.6987 216.808 26.5387 216.808 22.272C216.808 17.9627 217.619 13.824 219.24 9.856C220.861 5.888 223.272 2.60267 226.472 0H241.64V7.68H230.376C229.224 9.00267 228.221 11.136 227.368 14.08C226.557 17.024 226.152 19.84 226.152 22.528C226.152 25.216 226.557 28.032 227.368 30.976C228.221 33.92 229.224 36.0533 230.376 37.376Z" fill="#4F46E5"/>
</svg>
